<svg width="24" height="24" viewBox="0 0 24 24" fill="none" xmlns="http://www.w3.org/2000/svg">
<path d="M2.06153 11.652C1.97819 11.8765 1.97819 12.1235 2.06153 12.348C2.87323 14.3161 4.25104 15.999 6.0203 17.1831C7.78955 18.3672 9.87057 18.9994 11.9995 18.9994C14.1285 18.9994 16.2095 18.3672 17.9788 17.1831C19.748 15.999 21.1258 14.3161 21.9375 12.348C22.0209 12.1235 22.0209 11.8765 21.9375 11.652C21.1258 9.68385 19.748 8.00103 17.9788 6.81689C16.2095 5.63275 14.1285 5.00061 11.9995 5.00061C9.87057 5.00061 7.78955 5.63275 6.0203 6.81689C4.25104 8.00103 2.87323 9.68385 2.06153 11.652Z" stroke="#252020" stroke-width="2" stroke-linecap="round" stroke-linejoin="round"/>
<path d="M11.9995 15C13.6564 15 14.9995 13.6568 14.9995 12C14.9995 10.3431 13.6564 8.99999 11.9995 8.99999C10.3427 8.99999 8.99953 10.3431 8.99953 12C8.99953 13.6568 10.3427 15 11.9995 15Z" stroke="#252020" stroke-width="2" stroke-linecap="round" stroke-linejoin="round"/>
</svg>
